# This file uses centimeters as units for non-parametric coordinates.

mtllib book2.mtl
g default
v -7.500000 -0.750000 5.000000
v 7.500000 -0.750000 5.000000
v -7.500000 -0.375000 5.191517
v 7.500000 -0.375000 5.191517
v -7.500000 0.000000 5.234076
v 7.500000 0.000000 5.234076
v -7.500000 0.375000 5.191517
v 7.500000 0.375000 5.191517
v -7.500000 0.750000 5.000000
v 7.500000 0.750000 5.000000
v -7.500000 0.750000 -5.000000
v 7.500000 0.750000 -5.000000
v -7.500000 -0.750000 -5.000000
v 7.500000 -0.750000 -5.000000
v -7.500000 -0.850000 5.061216
v 7.500000 -0.850000 5.061216
v 7.500000 -0.404316 5.288832
v -7.500000 -0.404316 5.288832
v 7.500000 -0.000000 5.334718
v -7.500000 0.000000 5.334718
v 7.500000 0.404316 5.288832
v -7.500000 0.404316 5.288832
v 7.500000 0.850000 5.061216
v -7.500000 0.850000 5.061216
v 7.500000 0.850000 -5.000000
v -7.500000 0.850000 -5.000000
v -7.500000 -0.850000 -5.000000
v 7.500000 -0.850000 -5.000000
v -7.275657 0.727565 -4.846935
v 7.275657 0.727565 -4.846935
v 7.275657 0.363783 -4.786680
v -7.275657 0.363783 -4.786680
v 7.275657 0.000000 -4.756552
v -7.275657 0.000000 -4.756552
v 7.275657 -0.363783 -4.786680
v -7.275657 -0.363783 -4.786680
v 7.275657 -0.727565 -4.846935
v -7.275657 -0.727565 -4.846935
v 7.275657 -0.727565 5.005057
v 7.275657 -0.363783 5.190845
v 7.275657 0.000000 5.232131
v 7.275657 0.363783 5.190845
v 7.275657 0.727565 5.005057
v -7.275657 -0.727565 5.005057
v -7.275657 -0.363783 5.190845
v -7.275657 0.000000 5.232131
v -7.275657 0.363783 5.190845
v -7.275657 0.727565 5.005057
vt 0.048365 0.364122
vt 0.048372 -0.000131
vt 0.060525 -0.000129
vt 0.060517 0.364124
vt 0.070405 -0.000127
vt 0.070398 0.364126
vt 0.080287 -0.000125
vt 0.080280 0.364128
vt 0.092439 -0.000123
vt 0.092432 0.364130
vt 0.042801 0.001052
vt 0.042759 0.364332
vt 0.640632 0.000000
vt 0.666607 0.000000
vt 0.033598 0.364332
vt 0.033641 0.001050
vt 0.024440 0.364332
vt 0.024482 0.001048
vt 0.015282 0.364330
vt 0.015324 0.001048
vt 0.647173 0.292154
vt 0.647140 0.004435
vt 0.006121 0.364328
vt 0.006163 0.001048
vt 0.673328 0.074365
vt 0.673454 0.000000
vt 0.677887 0.004442
vt 0.677764 0.076583
vt 0.673325 0.148524
vt 0.677761 0.148523
vt 0.673355 0.222683
vt 0.677790 0.220464
vt 0.673507 0.297048
vt 0.677938 0.292604
vt 0.684262 0.000000
vt 0.684411 0.074365
vt 0.679975 0.076583
vt 0.679831 0.004443
vt 0.684436 0.148523
vt 0.680000 0.148523
vt 0.684429 0.222681
vt 0.679992 0.220464
vt 0.684298 0.297046
vt 0.679866 0.292603
vt 0.660334 0.004540
vt 0.634286 0.004437
vt 0.640792 0.000000
vt 0.640826 0.296591
vt 0.100754 0.363249
vt 0.100805 0.000000
vt 0.344453 0.000034
vt 0.344402 0.363284
vt 0.344747 0.363249
vt 0.344788 0.000000
vt 0.588436 0.000027
vt 0.588395 0.363277
vt 0.673110 0.000150
vt 0.673091 0.296742
vt 0.259404 0.371621
vt 0.496460 0.371616
vt 0.495010 0.380369
vt 0.254935 0.380374
vt 0.494284 0.389122
vt 0.253942 0.389127
vt 0.666585 0.296592
vt 0.660312 0.296742
vt 0.653828 0.296742
vt 0.653805 0.000150
vt 0.495009 0.397875
vt 0.254936 0.397880
vt 0.496458 0.406629
vt 0.259407 0.406633
vt 0.249215 0.406115
vt 0.012162 0.406074
vt 0.666818 0.292202
vt -0.009857 0.000000
vt -0.009857 0.000000
vt -0.009857 0.000000
vt 0.660079 0.000000
vt -0.009857 0.000000
vt -0.009857 0.000000
vt -0.009857 0.000000
vt -0.009857 0.000000
vt -0.009857 0.000000
vt -0.009857 0.000000
vt -0.009857 0.000000
vt -0.009857 0.000000
vt -0.009857 0.000000
vt 0.660101 0.292201
vt 0.653628 0.000151
vt 0.647355 0.000000
vt 0.608520 0.296590
vt 0.666837 0.000000
vt 0.608513 0.000000
vt 0.588740 0.000001
vt 0.588747 0.296591
vt -0.009857 0.000000
vt -0.009857 0.000000
vt -0.009857 0.000000
vt -0.009857 0.000000
vt -0.009857 0.000000
vt -0.009857 0.000000
vt -0.009857 0.000000
vt -0.009857 0.000000
vt -0.009857 0.000000
vt -0.009857 0.000000
vt -0.009857 0.000000
vt -0.009857 0.000000
vt -0.009857 0.000000
vt -0.009857 0.000000
vt -0.009857 0.000000
vt -0.009857 0.000000
vt 0.007693 0.397320
vt 0.247767 0.397361
vt 0.006701 0.388567
vt 0.247044 0.388608
vt 0.007696 0.379814
vt 0.247770 0.379855
vt 0.012168 0.371062
vt 0.249221 0.371102
vt 0.631286 0.000000
vt 0.631293 0.296592
vt 0.611520 0.296592
vt 0.611513 0.000000
vt 0.640678 0.296595
vt 0.634330 0.292160
vt 0.653571 0.296744
vt 0.647299 0.292203
vn -0.000000 -0.454829 0.890579
vn -0.000000 -0.454829 0.890579
vn -0.000000 -0.306302 0.951934
vn 0.000000 -0.306302 0.951934
vn 0.000000 -0.000000 1.000000
vn -0.000000 0.000000 1.000000
vn -0.000000 0.306302 0.951934
vn 0.000000 0.306302 0.951934
vn 0.000000 0.454829 0.890579
vn 0.000000 0.454829 0.890579
vn 0.000000 1.000000 0.000000
vn 0.000000 1.000000 0.000000
vn 0.000000 1.000000 0.000000
vn 0.000000 1.000000 0.000000
vn 0.000000 -0.163409 -0.986558
vn 0.000000 -0.163409 -0.986558
vn 0.000000 -0.123279 -0.992372
vn 0.000000 -0.123279 -0.992372
vn 0.000000 0.000000 -1.000000
vn 0.000000 0.000000 -1.000000
vn 0.000000 0.123279 -0.992372
vn 0.000000 0.123279 -0.992372
vn 0.000000 0.163409 -0.986558
vn 0.000000 0.163409 -0.986558
vn 0.000000 -1.000000 0.000000
vn 0.000000 -1.000000 0.000000
vn 0.000000 -1.000000 0.000000
vn 0.000000 -1.000000 0.000000
vn 1.000000 0.000000 0.000000
vn 1.000000 0.000000 0.000000
vn 1.000000 0.000000 0.000000
vn 1.000000 0.000000 0.000000
vn 1.000000 0.000000 0.000000
vn 1.000000 0.000000 0.000000
vn 1.000000 -0.000000 0.000000
vn 1.000000 -0.000000 0.000000
vn 1.000000 -0.000000 0.000000
vn 1.000000 -0.000000 0.000000
vn -1.000000 0.000000 0.000000
vn -1.000000 0.000000 0.000000
vn -1.000000 0.000001 0.000000
vn -1.000000 0.000001 0.000000
vn -1.000000 0.000000 0.000000
vn -1.000000 0.000000 0.000000
vn -1.000000 -0.000001 0.000000
vn -1.000000 -0.000001 0.000000
vn -1.000000 -0.000000 0.000000
vn -1.000000 -0.000000 0.000000
vn 1.000000 0.000000 0.000000
vn 1.000000 0.000000 0.000000
vn 1.000000 0.000000 0.000000
vn 1.000000 0.000000 0.000000
vn -1.000000 0.000000 0.000000
vn -1.000000 0.000004 0.000000
vn -1.000000 0.000004 0.000000
vn -1.000000 0.000000 0.000000
vn 1.000000 0.000000 0.000000
vn 1.000000 0.000000 0.000000
vn -1.000000 0.000000 0.000000
vn -1.000000 0.000000 0.000000
vn 1.000000 0.000000 0.000000
vn 1.000000 0.000000 0.000000
vn -1.000000 0.000000 0.000000
vn -1.000000 0.000000 0.000000
vn 1.000000 -0.000004 0.000000
vn 1.000000 -0.000004 0.000000
vn -1.000000 0.000000 0.000000
vn -1.000000 0.000000 0.000000
vn 1.000000 -0.000004 0.000000
vn 1.000000 -0.000004 0.000000
vn 0.000000 0.000000 -1.000000
vn 0.000000 0.000000 -1.000000
vn 0.000000 0.000000 -1.000000
vn 0.000000 0.000000 -1.000000
vn -1.000000 0.000000 0.000000
vn -1.000000 0.000000 0.000000
vn 0.000000 0.000000 -1.000000
vn 0.000000 0.000000 -1.000000
vn 0.000000 0.000000 -1.000000
vn 0.000000 0.000000 -1.000000
vn 1.000000 0.000000 0.000000
vn 1.000000 0.000000 0.000000
vn -1.000000 0.000004 0.000000
vn -1.000000 0.000004 0.000000
vn 0.000000 -0.989429 -0.145019
vn 0.000000 -0.989429 -0.145019
vn 0.000000 -0.989429 -0.145019
vn 0.000000 -0.989429 -0.145019
vn 0.000000 0.989429 -0.145019
vn 0.000000 0.989429 -0.145019
vn 0.000000 0.989429 -0.145019
vn 0.000000 0.989429 -0.145019
vn 0.099505 0.995037 0.000000
vn 0.099505 0.995037 0.000000
vn 0.099505 0.995037 0.000000
vn 0.099505 0.995037 0.000000
vn 0.025401 0.454682 -0.890292
vn 0.025401 0.454682 -0.890292
vn 0.025401 0.454682 -0.890292
vn 0.025401 0.454682 -0.890292
vn 0.008616 0.112764 -0.993585
vn 0.008616 0.112764 -0.993585
vn 0.008616 0.112764 -0.993584
vn 0.008616 0.112764 -0.993585
vn 0.008616 -0.112764 -0.993584
vn 0.008616 -0.112764 -0.993584
vn 0.008616 -0.112764 -0.993584
vn 0.008616 -0.112764 -0.993584
vn 0.099505 -0.995037 0.000000
vn 0.099505 -0.995037 0.000000
vn 0.099505 -0.995037 0.000000
vn 0.099505 -0.995037 0.000000
vn 0.025401 -0.454682 -0.890292
vn 0.025401 -0.454682 -0.890292
vn 0.025401 -0.454682 -0.890292
vn 0.025401 -0.454682 -0.890292
vn -0.099505 0.995037 0.000000
vn -0.099505 0.995037 0.000000
vn -0.099505 0.995037 0.000000
vn -0.099505 0.995037 0.000000
vn -0.025401 0.454682 -0.890292
vn -0.025401 0.454682 -0.890292
vn -0.025401 0.454682 -0.890292
vn -0.025401 0.454682 -0.890292
vn -0.008616 0.112764 -0.993584
vn -0.008616 0.112764 -0.993584
vn -0.008616 0.112764 -0.993584
vn -0.008616 0.112764 -0.993584
vn -0.008616 -0.112764 -0.993585
vn -0.008616 -0.112764 -0.993585
vn -0.008616 -0.112764 -0.993584
vn -0.008616 -0.112764 -0.993585
vn -0.025401 -0.454682 -0.890292
vn -0.025401 -0.454682 -0.890292
vn -0.025401 -0.454682 -0.890292
vn -0.025401 -0.454682 -0.890292
vn -0.099505 -0.995037 0.000000
vn -0.099505 -0.995037 0.000000
vn -0.099505 -0.995037 0.000000
vn -0.099505 -0.995037 0.000000
s 1
g pCube1
usemtl initialShadingGroup
f 15/1/1 16/2/2 17/3/3 18/4/4
f 18/4/4 17/3/3 19/5/5 20/6/6
f 20/6/6 19/5/5 21/7/7 22/8/8
f 22/8/8 21/7/7 23/9/9 24/10/10
s off
f 24/49/11 23/50/12 25/51/13 26/52/14
s 2
f 29/11/15 30/12/16 31/15/17 32/16/18
f 32/16/18 31/15/17 33/17/19 34/18/20
f 34/18/20 33/17/19 35/19/21 36/20/22
f 36/20/22 35/19/21 37/23/23 38/24/24
s off
f 27/53/25 28/54/26 16/55/27 15/56/28
s 3
f 39/59/29 37/60/30 35/61/31 40/62/32
f 40/62/32 35/61/31 33/63/33 41/64/34
f 41/64/34 33/63/33 31/69/35 42/70/36
f 42/70/36 31/69/35 30/71/37 43/72/38
s 4
f 38/73/39 44/74/40 45/113/41 36/114/42
f 36/114/42 45/113/41 46/115/43 34/116/44
f 34/116/44 46/115/43 47/117/45 32/118/46
f 32/118/46 47/117/45 48/119/47 29/120/48
s 5
f 2/76/49 4/77/50 17/78/51 16/80/52
s 6
f 3/81/53 1/82/54 15/83/55 18/84/56
s 5
f 4/77/50 6/85/57 19/86/58 17/78/51
s 6
f 5/87/59 3/81/53 18/84/56 20/88/60
s 5
f 6/85/57 8/97/61 21/98/62 19/86/58
s 6
f 7/99/63 5/87/59 20/88/60 22/100/64
s 5
f 8/97/61 10/101/65 23/102/66 21/98/62
s 6
f 9/103/67 7/99/63 22/100/64 24/104/68
s 5
f 10/101/65 12/105/69 25/106/70 23/102/66
s off
f 12/121/71 11/122/72 26/123/73 25/124/74
s 6
f 11/107/75 9/103/67 24/104/68 26/108/76
s off
f 13/96/77 14/95/78 28/94/79 27/92/80
s 5
f 14/109/81 2/76/49 16/80/52 28/110/82
s 6
f 1/82/54 13/111/83 27/112/84 15/83/55
s off
f 11/13/85 12/125/86 30/126/87 29/46/88
f 14/48/89 13/47/90 38/22/91 37/21/92
f 2/57/93 14/58/94 37/75/95 39/93/96
f 4/25/97 2/26/98 39/27/99 40/28/100
f 6/29/101 4/25/102 40/28/103 41/30/104
f 8/31/105 6/29/106 41/30/107 42/32/108
f 12/14/109 10/65/110 43/66/111 30/45/112
f 10/33/113 8/31/114 42/32/115 43/34/116
f 13/67/117 1/68/118 44/79/119 38/89/120
f 1/35/121 3/36/122 45/37/123 44/38/124
f 3/36/125 5/39/126 46/40/127 45/37/128
f 5/39/129 7/41/130 47/42/131 46/40/132
f 7/41/133 9/43/134 48/44/135 47/42/136
f 9/90/137 11/127/138 29/128/139 48/91/140
